<?xml version="1.0" encoding="UTF-8" standalone="no"?>
<!-- Created with Inkscape (http://www.inkscape.org/) -->
<svg
   xmlns:dc="http://purl.org/dc/elements/1.1/"
   xmlns:cc="http://creativecommons.org/ns#"
   xmlns:rdf="http://www.w3.org/1999/02/22-rdf-syntax-ns#"
   xmlns:svg="http://www.w3.org/2000/svg"
   xmlns="http://www.w3.org/2000/svg"
   xmlns:xlink="http://www.w3.org/1999/xlink"
   xmlns:sodipodi="http://sodipodi.sourceforge.net/DTD/sodipodi-0.dtd"
   xmlns:inkscape="http://www.inkscape.org/namespaces/inkscape"
   width="128"
   height="128"
   id="svg2"
   sodipodi:version="0.32"
   inkscape:version="0.45+devel"
   sodipodi:docname="angel.svg"
   inkscape:output_extension="org.inkscape.output.svg.inkscape"
   version="1.0"
   inkscape:export-filename="/home/nicu/Desktop/pacman/pacman.png"
   inkscape:export-xdpi="90"
   inkscape:export-ydpi="90">
  <defs
     id="defs4">
    <inkscape:perspective
       sodipodi:type="inkscape:persp3d"
       inkscape:vp_x="-50 : 600 : 1"
       inkscape:vp_y="0 : 1000 : 0"
       inkscape:vp_z="700 : 600 : 1"
       inkscape:persp3d-origin="300 : 400 : 1"
       id="perspective2505" />
    <linearGradient
       id="linearGradient4072">
      <stop
         style="stop-color:#000000;stop-opacity:1;"
         offset="0"
         id="stop4074" />
      <stop
         style="stop-color:#000000;stop-opacity:0;"
         offset="1"
         id="stop4076" />
    </linearGradient>
    <linearGradient
       id="linearGradient2315">
      <stop
         style="stop-color:#000000;stop-opacity:0;"
         offset="0"
         id="stop2317" />
      <stop
         style="stop-color:#000000;stop-opacity:0.57195574;"
         offset="1"
         id="stop2319" />
    </linearGradient>
    <filter
       inkscape:collect="always"
       id="filter3730"
       x="-0.34801543"
       width="1.6960309"
       y="-0.34084839"
       height="1.6816968">
      <feGaussianBlur
         inkscape:collect="always"
         stdDeviation="5.4650567"
         id="feGaussianBlur3732" />
    </filter>
    <filter
       inkscape:collect="always"
       id="filter4065"
       x="-0.51975077"
       width="2.0395014"
       y="-0.45338511"
       height="1.9067702">
      <feGaussianBlur
         inkscape:collect="always"
         stdDeviation="4.1511594"
         id="feGaussianBlur4067" />
    </filter>
    <filter
       inkscape:collect="always"
       id="filter4112"
       x="-0.070020586"
       width="1.1400412"
       y="-0.34009999"
       height="1.6802">
      <feGaussianBlur
         inkscape:collect="always"
         stdDeviation="3.9678331"
         id="feGaussianBlur4114" />
    </filter>
    <radialGradient
       inkscape:collect="always"
       xlink:href="#linearGradient4072"
       id="radialGradient2628"
       gradientUnits="userSpaceOnUse"
       gradientTransform="matrix(1.4028467,1.6438735e-6,-1.4520791e-7,0.2058824,-89.844917,403.11278)"
       cx="210.88904"
       cy="506.35242"
       fx="210.88904"
       fy="506.35242"
       r="68" />
    <radialGradient
       inkscape:collect="always"
       xlink:href="#linearGradient2315"
       id="radialGradient2630"
       gradientUnits="userSpaceOnUse"
       gradientTransform="matrix(0.7158046,1.4128374,-1.3538472,0.6859177,735.83621,-155.77224)"
       cx="216.99271"
       cy="497.9592"
       fx="216.99271"
       fy="497.9592"
       r="65" />
    <radialGradient
       inkscape:collect="always"
       xlink:href="#linearGradient2315"
       id="radialGradient2632"
       gradientUnits="userSpaceOnUse"
       gradientTransform="matrix(0.387095,1.5161279,-1.4234088,0.3634221,726.51481,-93.106615)"
       cx="233.49998"
       cy="409.86218"
       fx="233.49998"
       fy="409.86218"
       r="15.5" />
    <radialGradient
       inkscape:collect="always"
       xlink:href="#linearGradient2315"
       id="radialGradient2634"
       gradientUnits="userSpaceOnUse"
       gradientTransform="matrix(0.387095,1.5161279,-1.4234088,0.3634221,726.51481,-93.106615)"
       cx="233.49998"
       cy="409.86218"
       fx="233.49998"
       fy="409.86218"
       r="15.5" />
    <radialGradient
       inkscape:collect="always"
       xlink:href="#linearGradient2315"
       id="radialGradient3228"
       cx="186.82811"
       cy="380.02658"
       fx="186.82811"
       fy="380.02658"
       r="2.3672037"
       gradientTransform="matrix(1.3782515,-1.7187115e-2,7.4073583e-2,5.9400027,-98.817923,-1876.2189)"
       gradientUnits="userSpaceOnUse" />
    <radialGradient
       inkscape:collect="always"
       xlink:href="#linearGradient2315"
       id="radialGradient3236"
       cx="442.89062"
       cy="-12.792621"
       fx="442.89062"
       fy="-12.792621"
       r="42.765625"
       gradientTransform="matrix(1.5640713,-2.4614243e-2,9.1990522e-3,0.5845385,-249.70421,31.410446)"
       gradientUnits="userSpaceOnUse" />
    <radialGradient
       inkscape:collect="always"
       xlink:href="#linearGradient2315"
       id="radialGradient3275"
       cx="415.03445"
       cy="60.53315"
       fx="415.03445"
       fy="60.53315"
       r="5.0625"
       gradientTransform="matrix(1.2120754,0.1334791,-0.3159845,2.8693394,-68.891042,-166.14015)"
       gradientUnits="userSpaceOnUse" />
    <radialGradient
       inkscape:collect="always"
       xlink:href="#linearGradient2315"
       id="radialGradient3277"
       cx="414.80768"
       cy="60.831429"
       fx="414.80768"
       fy="60.831429"
       r="5.0625"
       gradientTransform="matrix(1.2660525,-3.0432377e-2,7.0806292e-2,2.9456946,-114.66784,-102.93015)"
       gradientUnits="userSpaceOnUse" />
    <radialGradient
       inkscape:collect="always"
       xlink:href="#linearGradient2315"
       id="radialGradient3279"
       cx="413.8414"
       cy="60.362972"
       fx="413.8414"
       fy="60.362972"
       r="5.0625"
       gradientTransform="matrix(1.5043292,3.9239527e-2,-8.4540234e-2,3.2410263,-203.60921,-149.32136)"
       gradientUnits="userSpaceOnUse" />
    <radialGradient
       inkscape:collect="always"
       xlink:href="#linearGradient2315"
       id="radialGradient3283"
       cx="432.20084"
       cy="61.36409"
       fx="432.20084"
       fy="61.36409"
       r="3"
       gradientTransform="matrix(1.4609915,0.4875459,-0.1433818,5.2501603,-190.44517,-474.97296)"
       gradientUnits="userSpaceOnUse" />
    <radialGradient
       inkscape:collect="always"
       xlink:href="#linearGradient2315"
       id="radialGradient3313"
       gradientUnits="userSpaceOnUse"
       gradientTransform="matrix(1.4609915,0.4875459,-0.1433818,5.2501603,-190.44517,-474.97296)"
       cx="432.67249"
       cy="60.772472"
       fx="432.67249"
       fy="60.772472"
       r="3" />
    <radialGradient
       inkscape:collect="always"
       xlink:href="#linearGradient2315"
       id="radialGradient3315"
       gradientUnits="userSpaceOnUse"
       gradientTransform="matrix(1.2120754,0.1334791,-0.3159845,2.8693394,-68.891042,-166.14015)"
       cx="414.42416"
       cy="57.798111"
       fx="414.42416"
       fy="57.798111"
       r="5.0625" />
    <radialGradient
       inkscape:collect="always"
       xlink:href="#linearGradient2315"
       id="radialGradient3317"
       gradientUnits="userSpaceOnUse"
       gradientTransform="matrix(1.2660525,-3.0432377e-2,7.0806292e-2,2.9456946,-114.66784,-102.93015)"
       cx="415.37854"
       cy="58.218452"
       fx="415.37854"
       fy="58.218452"
       r="5.0625" />
    <radialGradient
       inkscape:collect="always"
       xlink:href="#linearGradient2315"
       id="radialGradient3319"
       gradientUnits="userSpaceOnUse"
       gradientTransform="matrix(1.5043292,3.9239527e-2,-8.4540234e-2,3.2410263,-203.60921,-149.32136)"
       cx="413.70886"
       cy="57.451775"
       fx="413.70886"
       fy="57.451775"
       r="5.0625" />
  </defs>
  <sodipodi:namedview
     id="base"
     pagecolor="#ffffff"
     bordercolor="#666666"
     borderopacity="1.0"
     gridtolerance="10000"
     guidetolerance="10"
     objecttolerance="10"
     inkscape:pageopacity="0.0"
     inkscape:pageshadow="2"
     inkscape:zoom="0.721875"
     inkscape:cx="68.294372"
     inkscape:cy="-123.46857"
     inkscape:document-units="px"
     inkscape:current-layer="layer1"
     showgrid="false"
     inkscape:window-width="937"
     inkscape:window-height="717"
     inkscape:window-x="674"
     inkscape:window-y="205"
     showguides="true"
     inkscape:guide-bbox="true"
     height="640px"
     width="128px">
    <inkscape:grid
       type="xygrid"
       id="grid3194"
       originx="0px"
       originy="0px"
       spacingx="0px"
       spacingy="0px" />
  </sodipodi:namedview>
  <metadata
     id="metadata7">
    <rdf:RDF>
      <cc:Work
         rdf:about="">
        <dc:format>image/svg+xml</dc:format>
        <dc:type
           rdf:resource="http://purl.org/dc/dcmitype/StillImage" />
        <dc:title></dc:title>
        <dc:date></dc:date>
        <dc:creator>
          <cc:Agent>
            <dc:title></dc:title>
          </cc:Agent>
        </dc:creator>
        <dc:rights>
          <cc:Agent>
            <dc:title></dc:title>
          </cc:Agent>
        </dc:rights>
        <dc:publisher>
          <cc:Agent>
            <dc:title></dc:title>
          </cc:Agent>
        </dc:publisher>
        <dc:identifier></dc:identifier>
        <dc:source></dc:source>
        <dc:relation></dc:relation>
        <dc:language></dc:language>
        <dc:subject>
          <rdf:Bag />
        </dc:subject>
        <dc:coverage></dc:coverage>
        <dc:description></dc:description>
        <dc:contributor>
          <cc:Agent>
            <dc:title></dc:title>
          </cc:Agent>
        </dc:contributor>
        <cc:license
           rdf:resource="" />
      </cc:Work>
    </rdf:RDF>
  </metadata>
  <g
     inkscape:label="Layer 1"
     inkscape:groupmode="layer"
     id="layer1"
     transform="translate(-233.42021,-11.73452)">
    <g
       transform="matrix(0.7128664,0,0,0.7128664,149.77849,-234.50134)"
       id="g2600">
      <g
         id="g3295"
         transform="matrix(-0.9871475,0.159812,0.159812,0.9871475,329.23458,-38.231843)">
        <path
           sodipodi:type="arc"
           style="opacity:1;fill:#f9f9f9;fill-opacity:1;stroke:none;stroke-width:4;stroke-linecap:round;stroke-miterlimit:4;stroke-dasharray:none;stroke-opacity:1"
           id="path3297"
           sodipodi:cx="433.5"
           sodipodi:cy="62.375"
           sodipodi:rx="3"
           sodipodi:ry="12.625"
           d="M 436.5,62.375 A 3,12.625 0 1 1 430.5,62.375 A 3,12.625 0 1 1 436.5,62.375 z"
           transform="matrix(2.3218372,-0.2974582,0.6568251,1.6440562,-894.12871,470.19371)" />
        <path
           transform="matrix(2.3218372,-0.2974582,0.6568251,1.6440562,-894.12871,470.19371)"
           d="M 436.5,62.375 A 3,12.625 0 1 1 430.5,62.375 A 3,12.625 0 1 1 436.5,62.375 z"
           sodipodi:ry="12.625"
           sodipodi:rx="3"
           sodipodi:cy="62.375"
           sodipodi:cx="433.5"
           id="path3299"
           style="opacity:1;fill:url(#radialGradient3313);fill-opacity:1;stroke:none;stroke-width:4;stroke-linecap:round;stroke-miterlimit:4;stroke-dasharray:none;stroke-opacity:1"
           sodipodi:type="arc" />
        <path
           sodipodi:type="arc"
           style="opacity:1;fill:#f9f9f9;fill-opacity:1;stroke:none;stroke-width:4;stroke-linecap:round;stroke-miterlimit:4;stroke-dasharray:none;stroke-opacity:1"
           id="path3301"
           sodipodi:cx="416.4375"
           sodipodi:cy="58.6875"
           sodipodi:rx="5.0625"
           sodipodi:ry="11.6875"
           d="M 421.5,58.6875 A 5.0625,11.6875 0 1 1 411.375,58.6875 A 5.0625,11.6875 0 1 1 421.5,58.6875 z"
           transform="matrix(0.3912054,1.1880641,-1.1880641,0.3912054,49.578429,-64.425662)" />
        <path
           transform="matrix(0.3912054,1.1880641,-1.1880641,0.3912054,49.578429,-64.425662)"
           d="M 421.5,58.6875 A 5.0625,11.6875 0 1 1 411.375,58.6875 A 5.0625,11.6875 0 1 1 421.5,58.6875 z"
           sodipodi:ry="11.6875"
           sodipodi:rx="5.0625"
           sodipodi:cy="58.6875"
           sodipodi:cx="416.4375"
           id="path3303"
           style="opacity:1;fill:url(#radialGradient3315);fill-opacity:1;stroke:none;stroke-width:4;stroke-linecap:round;stroke-miterlimit:4;stroke-dasharray:none;stroke-opacity:1"
           sodipodi:type="arc" />
        <path
           transform="matrix(0.4841185,1.4702348,-1.4702348,0.4841185,21.659329,-195.76095)"
           d="M 421.5,58.6875 A 5.0625,11.6875 0 1 1 411.375,58.6875 A 5.0625,11.6875 0 1 1 421.5,58.6875 z"
           sodipodi:ry="11.6875"
           sodipodi:rx="5.0625"
           sodipodi:cy="58.6875"
           sodipodi:cx="416.4375"
           id="path3305"
           style="opacity:1;fill:#f9f9f9;fill-opacity:1;stroke:none;stroke-width:4;stroke-linecap:round;stroke-miterlimit:4;stroke-dasharray:none;stroke-opacity:1"
           sodipodi:type="arc" />
        <path
           sodipodi:type="arc"
           style="opacity:1;fill:url(#radialGradient3317);fill-opacity:1;stroke:none;stroke-width:4;stroke-linecap:round;stroke-miterlimit:4;stroke-dasharray:none;stroke-opacity:1"
           id="path3307"
           sodipodi:cx="416.4375"
           sodipodi:cy="58.6875"
           sodipodi:rx="5.0625"
           sodipodi:ry="11.6875"
           d="M 421.5,58.6875 A 5.0625,11.6875 0 1 1 411.375,58.6875 A 5.0625,11.6875 0 1 1 421.5,58.6875 z"
           transform="matrix(0.4841185,1.4702348,-1.4702348,0.4841185,21.659329,-195.76095)" />
        <path
           sodipodi:type="arc"
           style="opacity:1;fill:#f9f9f9;fill-opacity:1;stroke:none;stroke-width:4;stroke-linecap:round;stroke-miterlimit:4;stroke-dasharray:none;stroke-opacity:1"
           id="path3309"
           sodipodi:cx="416.4375"
           sodipodi:cy="58.6875"
           sodipodi:rx="5.0625"
           sodipodi:ry="11.6875"
           d="M 421.5,58.6875 A 5.0625,11.6875 0 1 1 411.375,58.6875 A 5.0625,11.6875 0 1 1 421.5,58.6875 z"
           transform="matrix(0.6112627,1.8563631,-1.8563631,0.6112627,-16.693416,-372.78809)" />
        <path
           transform="matrix(0.6112627,1.8563631,-1.8563631,0.6112627,-16.693416,-372.78809)"
           d="M 421.5,58.6875 A 5.0625,11.6875 0 1 1 411.375,58.6875 A 5.0625,11.6875 0 1 1 421.5,58.6875 z"
           sodipodi:ry="11.6875"
           sodipodi:rx="5.0625"
           sodipodi:cy="58.6875"
           sodipodi:cx="416.4375"
           id="path3311"
           style="opacity:1;fill:url(#radialGradient3319);fill-opacity:1;stroke:none;stroke-width:4;stroke-linecap:round;stroke-miterlimit:4;stroke-dasharray:none;stroke-opacity:1"
           sodipodi:type="arc" />
      </g>
      <rect
         style="opacity:1;fill:#008080;fill-opacity:1;stroke:none;stroke-width:4;stroke-linecap:round;stroke-miterlimit:4;stroke-dasharray:none;stroke-opacity:1"
         id="rect3224"
         width="4.7344074"
         height="18.762281"
         x="185.33766"
         y="371.35339" />
      <rect
         y="371.35339"
         x="185.33766"
         height="18.762281"
         width="4.7344074"
         id="rect3226"
         style="opacity:1;fill:url(#radialGradient3228);fill-opacity:1;stroke:none;stroke-width:4;stroke-linecap:round;stroke-miterlimit:4;stroke-dasharray:none;stroke-opacity:1" />
      <path
         transform="matrix(1.0588235,0,0,0.8571429,-9.117647,72.480312)"
         style="fill:url(#radialGradient2628);fill-opacity:1;stroke:none;stroke-width:4;stroke-linecap:round;stroke-miterlimit:4;stroke-opacity:1;filter:url(#filter4112)"
         d="M 274,507.36218 C 274,515.09018 243.536,521.36218 206,521.36218 C 168.464,521.36218 138,515.09018 138,507.36218 C 138,499.63418 168.464,493.36218 206,493.36218 C 243.536,493.36218 274,499.63418 274,507.36218 z"
         id="path2602" />
      <path
         transform="translate(-31,-85)"
         style="fill:#f4e3d7;fill-opacity:1;stroke:none;stroke-width:4;stroke-linecap:round;stroke-miterlimit:4;stroke-opacity:1"
         d="M 305,531.36218 C 305,536.20505 304.46949,568.92477 303.46346,573.46635 C 300.98926,585.92556 292.98013,593.09887 280.95284,595.82909 C 275.3627,596.87193 269.00413,574.00521 262.10328,573.87777 C 255.20242,573.75033 247.75928,596.36218 240,596.36218 C 232.20434,596.36218 224.7278,573.73753 217.7997,573.84256 C 210.87161,573.9476 204.49197,596.78232 198.89011,595.70106 C 186.20634,593.59612 179.57446,584.91986 176.44715,573.05649 C 175.49911,568.64103 175,536.05954 175,531.36218 C 175,495.48218 204.12,466.36218 240,466.36218 C 275.88,466.36218 305,495.48218 305,531.36218 z"
         id="path2604"
         sodipodi:nodetypes="cccsssccssc" />
      <path
         sodipodi:nodetypes="cccsssccssc"
         id="path2606"
         d="M 305,531.36218 C 305,536.20505 304.46949,568.92477 303.46346,573.46635 C 300.98926,585.92556 292.98013,593.09887 280.95284,595.82909 C 275.3627,596.87193 269.00413,574.00521 262.10328,573.87777 C 255.20242,573.75033 247.75928,596.36218 240,596.36218 C 232.20434,596.36218 224.7278,573.73753 217.7997,573.84256 C 210.87161,573.9476 204.49197,596.78232 198.89011,595.70106 C 186.20634,593.59612 179.57446,584.91986 176.44715,573.05649 C 175.49911,568.64103 175,536.05954 175,531.36218 C 175,495.48218 204.12,466.36218 240,466.36218 C 275.88,466.36218 305,495.48218 305,531.36218 z"
         style="fill:url(#radialGradient2630);fill-opacity:1;stroke:none;stroke-width:4;stroke-linecap:round;stroke-miterlimit:4;stroke-opacity:1"
         transform="translate(-31,-85)" />
      <g
         id="g2608"
         transform="translate(5,10)">
        <path
           transform="translate(4,7)"
           d="M 255,417.86218 A 15.5,15.5 0 1 1 224,417.86218 A 15.5,15.5 0 1 1 255,417.86218 z"
           sodipodi:ry="15.5"
           sodipodi:rx="15.5"
           sodipodi:cy="417.86218"
           sodipodi:cx="239.5"
           id="path2610"
           style="opacity:1;fill:#ffffff;fill-opacity:1;stroke:none;stroke-width:4;stroke-linecap:round;stroke-miterlimit:4;stroke-dasharray:none;stroke-opacity:1"
           sodipodi:type="arc" />
        <path
           sodipodi:type="arc"
           style="opacity:1;fill:url(#radialGradient2632);fill-opacity:1;stroke:none;stroke-width:4;stroke-linecap:round;stroke-miterlimit:4;stroke-dasharray:none;stroke-opacity:1"
           id="path2612"
           sodipodi:cx="239.5"
           sodipodi:cy="417.86218"
           sodipodi:rx="15.5"
           sodipodi:ry="15.5"
           d="M 255,417.86218 A 15.5,15.5 0 1 1 224,417.86218 A 15.5,15.5 0 1 1 255,417.86218 z"
           transform="translate(4,7)" />
        <path
           transform="matrix(0.6129032,0,0,0.6129032,101.70968,169.7531)"
           d="M 255,417.86218 A 15.5,15.5 0 1 1 224,417.86218 A 15.5,15.5 0 1 1 255,417.86218 z"
           sodipodi:ry="15.5"
           sodipodi:rx="15.5"
           sodipodi:cy="417.86218"
           sodipodi:cx="239.5"
           id="path2614"
           style="opacity:1;fill:#000000;fill-opacity:1;stroke:none;stroke-width:4;stroke-linecap:round;stroke-miterlimit:4;stroke-dasharray:none;stroke-opacity:1"
           sodipodi:type="arc" />
      </g>
      <g
         id="g2616"
         transform="translate(-35,10)">
        <path
           sodipodi:type="arc"
           style="opacity:1;fill:#ffffff;fill-opacity:1;stroke:none;stroke-width:4;stroke-linecap:round;stroke-miterlimit:4;stroke-dasharray:none;stroke-opacity:1"
           id="path2618"
           sodipodi:cx="239.5"
           sodipodi:cy="417.86218"
           sodipodi:rx="15.5"
           sodipodi:ry="15.5"
           d="M 255,417.86218 A 15.5,15.5 0 1 1 224,417.86218 A 15.5,15.5 0 1 1 255,417.86218 z"
           transform="translate(4,7)" />
        <path
           transform="translate(4,7)"
           d="M 255,417.86218 A 15.5,15.5 0 1 1 224,417.86218 A 15.5,15.5 0 1 1 255,417.86218 z"
           sodipodi:ry="15.5"
           sodipodi:rx="15.5"
           sodipodi:cy="417.86218"
           sodipodi:cx="239.5"
           id="path2620"
           style="opacity:1;fill:url(#radialGradient2634);fill-opacity:1;stroke:none;stroke-width:4;stroke-linecap:round;stroke-miterlimit:4;stroke-dasharray:none;stroke-opacity:1"
           sodipodi:type="arc" />
        <path
           sodipodi:type="arc"
           style="opacity:1;fill:#000000;fill-opacity:1;stroke:none;stroke-width:4;stroke-linecap:round;stroke-miterlimit:4;stroke-dasharray:none;stroke-opacity:1"
           id="path2622"
           sodipodi:cx="239.5"
           sodipodi:cy="417.86218"
           sodipodi:rx="15.5"
           sodipodi:ry="15.5"
           d="M 255,417.86218 A 15.5,15.5 0 1 1 224,417.86218 A 15.5,15.5 0 1 1 255,417.86218 z"
           transform="matrix(0.6129032,0,0,0.6129032,101.70968,169.7531)" />
      </g>
      <path
         style="fill:#ffffff;fill-opacity:0.62745098;stroke:none;stroke-width:4;stroke-linecap:round;stroke-miterlimit:4;stroke-opacity:1;filter:url(#filter3730)"
         d="M 180.00895,413.25201 C 169.98339,423.52178 159.6027,429.66602 156.83776,426.96684 C 154.07283,424.26764 159.9655,413.74212 169.99105,403.47235 C 180.01661,393.20258 190.3973,387.05834 193.16224,389.75752 C 195.92717,392.45672 190.0345,402.98224 180.00895,413.25201 z"
         id="path2624" />
      <path
         transform="matrix(0.7712592,0.6365212,-0.6365212,0.7712592,379.11791,-54.471338)"
         style="fill:#ffffff;fill-opacity:0.43438912;stroke:none;stroke-width:4;stroke-linecap:round;stroke-miterlimit:4;stroke-opacity:1;filter:url(#filter4065)"
         d="M 262,501.86218 C 262,509.31418 259.536,515.36218 256.5,515.36218 C 253.464,515.36218 251,509.31418 251,501.86218 C 251,494.41018 253.464,488.36218 256.5,488.36218 C 259.536,488.36218 262,494.41018 262,501.86218 z"
         id="path2626" />
      <path
         style="opacity:1;fill:#ffff00;fill-opacity:1;stroke:none;stroke-width:4;stroke-linecap:round;stroke-miterlimit:4;stroke-dasharray:none;stroke-opacity:1"
         d="M 459.53125,10.90625 C 435.92673,10.90625 416.75001,15.214918 416.75,20.53125 C 416.75,25.847581 435.92674,30.15625 459.53125,30.15625 C 483.13577,30.156249 502.28125,25.847582 502.28125,20.53125 C 502.28125,15.214917 483.13577,10.90625 459.53125,10.90625 z M 459.71875,12.03125 C 479.63289,12.03125 495.78125,15.444613 495.78125,19.65625 C 495.78125,23.867893 479.6329,27.28125 459.71875,27.28125 C 439.80463,27.28125 423.625,23.867893 423.625,19.65625 C 423.62501,15.444614 439.80463,12.03125 459.71875,12.03125 z"
         transform="matrix(1.4027874,0,0,1.4027874,-433.99298,354.69528)"
         id="path2636" />
      <path
         id="path3234"
         transform="matrix(1.4027874,0,0,1.4027874,-433.99298,354.69528)"
         d="M 459.53125,10.90625 C 435.92673,10.90625 416.75001,15.214918 416.75,20.53125 C 416.75,25.847581 435.92674,30.15625 459.53125,30.15625 C 483.13577,30.156249 502.28125,25.847582 502.28125,20.53125 C 502.28125,15.214917 483.13577,10.90625 459.53125,10.90625 z M 459.71875,12.03125 C 479.63289,12.03125 495.78125,15.444613 495.78125,19.65625 C 495.78125,23.867893 479.6329,27.28125 459.71875,27.28125 C 439.80463,27.28125 423.625,23.867893 423.625,19.65625 C 423.62501,15.444614 439.80463,12.03125 459.71875,12.03125 z"
         style="opacity:1;fill:url(#radialGradient3236);fill-opacity:1;stroke:none;stroke-width:4;stroke-linecap:round;stroke-miterlimit:4;stroke-dasharray:none;stroke-opacity:1" />
      <g
         id="g3285"
         transform="translate(12.932274,0.3233069)">
        <path
           transform="matrix(2.3218372,-0.2974582,0.6568251,1.6440562,-894.12871,470.19371)"
           d="M 436.5,62.375 A 3,12.625 0 1 1 430.5,62.375 A 3,12.625 0 1 1 436.5,62.375 z"
           sodipodi:ry="12.625"
           sodipodi:rx="3"
           sodipodi:cy="62.375"
           sodipodi:cx="433.5"
           id="path3244"
           style="opacity:1;fill:#f9f9f9;fill-opacity:1;stroke:none;stroke-width:4;stroke-linecap:round;stroke-miterlimit:4;stroke-dasharray:none;stroke-opacity:1"
           sodipodi:type="arc" />
        <path
           sodipodi:type="arc"
           style="opacity:1;fill:url(#radialGradient3283);fill-opacity:1;stroke:none;stroke-width:4;stroke-linecap:round;stroke-miterlimit:4;stroke-dasharray:none;stroke-opacity:1"
           id="path3281"
           sodipodi:cx="433.5"
           sodipodi:cy="62.375"
           sodipodi:rx="3"
           sodipodi:ry="12.625"
           d="M 436.5,62.375 A 3,12.625 0 1 1 430.5,62.375 A 3,12.625 0 1 1 436.5,62.375 z"
           transform="matrix(2.3218372,-0.2974582,0.6568251,1.6440562,-894.12871,470.19371)" />
        <path
           transform="matrix(0.3912054,1.1880641,-1.1880641,0.3912054,49.578429,-64.425662)"
           d="M 421.5,58.6875 A 5.0625,11.6875 0 1 1 411.375,58.6875 A 5.0625,11.6875 0 1 1 421.5,58.6875 z"
           sodipodi:ry="11.6875"
           sodipodi:rx="5.0625"
           sodipodi:cy="58.6875"
           sodipodi:cx="416.4375"
           id="path3242"
           style="opacity:1;fill:#f9f9f9;fill-opacity:1;stroke:none;stroke-width:4;stroke-linecap:round;stroke-miterlimit:4;stroke-dasharray:none;stroke-opacity:1"
           sodipodi:type="arc" />
        <path
           sodipodi:type="arc"
           style="opacity:1;fill:url(#radialGradient3275);fill-opacity:1;stroke:none;stroke-width:4;stroke-linecap:round;stroke-miterlimit:4;stroke-dasharray:none;stroke-opacity:1"
           id="path3267"
           sodipodi:cx="416.4375"
           sodipodi:cy="58.6875"
           sodipodi:rx="5.0625"
           sodipodi:ry="11.6875"
           d="M 421.5,58.6875 A 5.0625,11.6875 0 1 1 411.375,58.6875 A 5.0625,11.6875 0 1 1 421.5,58.6875 z"
           transform="matrix(0.3912054,1.1880641,-1.1880641,0.3912054,49.578429,-64.425662)" />
        <path
           sodipodi:type="arc"
           style="opacity:1;fill:#f9f9f9;fill-opacity:1;stroke:none;stroke-width:4;stroke-linecap:round;stroke-miterlimit:4;stroke-dasharray:none;stroke-opacity:1"
           id="path3240"
           sodipodi:cx="416.4375"
           sodipodi:cy="58.6875"
           sodipodi:rx="5.0625"
           sodipodi:ry="11.6875"
           d="M 421.5,58.6875 A 5.0625,11.6875 0 1 1 411.375,58.6875 A 5.0625,11.6875 0 1 1 421.5,58.6875 z"
           transform="matrix(0.4841185,1.4702348,-1.4702348,0.4841185,21.659329,-195.76095)" />
        <path
           transform="matrix(0.4841185,1.4702348,-1.4702348,0.4841185,21.659329,-195.76095)"
           d="M 421.5,58.6875 A 5.0625,11.6875 0 1 1 411.375,58.6875 A 5.0625,11.6875 0 1 1 421.5,58.6875 z"
           sodipodi:ry="11.6875"
           sodipodi:rx="5.0625"
           sodipodi:cy="58.6875"
           sodipodi:cx="416.4375"
           id="path3269"
           style="opacity:1;fill:url(#radialGradient3277);fill-opacity:1;stroke:none;stroke-width:4;stroke-linecap:round;stroke-miterlimit:4;stroke-dasharray:none;stroke-opacity:1"
           sodipodi:type="arc" />
        <path
           transform="matrix(0.6112627,1.8563631,-1.8563631,0.6112627,-16.693416,-372.78809)"
           d="M 421.5,58.6875 A 5.0625,11.6875 0 1 1 411.375,58.6875 A 5.0625,11.6875 0 1 1 421.5,58.6875 z"
           sodipodi:ry="11.6875"
           sodipodi:rx="5.0625"
           sodipodi:cy="58.6875"
           sodipodi:cx="416.4375"
           id="path3238"
           style="opacity:1;fill:#f9f9f9;fill-opacity:1;stroke:none;stroke-width:4;stroke-linecap:round;stroke-miterlimit:4;stroke-dasharray:none;stroke-opacity:1"
           sodipodi:type="arc" />
        <path
           sodipodi:type="arc"
           style="opacity:1;fill:url(#radialGradient3279);fill-opacity:1;stroke:none;stroke-width:4;stroke-linecap:round;stroke-miterlimit:4;stroke-dasharray:none;stroke-opacity:1"
           id="path3271"
           sodipodi:cx="416.4375"
           sodipodi:cy="58.6875"
           sodipodi:rx="5.0625"
           sodipodi:ry="11.6875"
           d="M 421.5,58.6875 A 5.0625,11.6875 0 1 1 411.375,58.6875 A 5.0625,11.6875 0 1 1 421.5,58.6875 z"
           transform="matrix(0.6112627,1.8563631,-1.8563631,0.6112627,-16.693416,-372.78809)" />
      </g>
    </g>
  </g>
</svg>
