<?xml version="1.0" encoding="UTF-8" standalone="no"?>
<!-- Created with Inkscape (http://www.inkscape.org/) -->
<svg
   xmlns:dc="http://purl.org/dc/elements/1.1/"
   xmlns:cc="http://creativecommons.org/ns#"
   xmlns:rdf="http://www.w3.org/1999/02/22-rdf-syntax-ns#"
   xmlns:svg="http://www.w3.org/2000/svg"
   xmlns="http://www.w3.org/2000/svg"
   xmlns:xlink="http://www.w3.org/1999/xlink"
   xmlns:sodipodi="http://sodipodi.sourceforge.net/DTD/sodipodi-0.dtd"
   xmlns:inkscape="http://www.inkscape.org/namespaces/inkscape"
   width="128"
   height="128"
   id="svg2"
   sodipodi:version="0.32"
   inkscape:version="0.45+devel"
   sodipodi:docname="devil.svg"
   inkscape:output_extension="org.inkscape.output.svg.inkscape"
   version="1.0"
   inkscape:export-filename="/home/nicu/Desktop/pacman/pacman.png"
   inkscape:export-xdpi="90"
   inkscape:export-ydpi="90">
  <defs
     id="defs4">
    <inkscape:perspective
       sodipodi:type="inkscape:persp3d"
       inkscape:vp_x="-50 : 600 : 1"
       inkscape:vp_y="0 : 1000 : 0"
       inkscape:vp_z="700 : 600 : 1"
       inkscape:persp3d-origin="300 : 400 : 1"
       id="perspective2622" />
    <linearGradient
       id="linearGradient4072">
      <stop
         style="stop-color:#000000;stop-opacity:1;"
         offset="0"
         id="stop4074" />
      <stop
         style="stop-color:#000000;stop-opacity:0;"
         offset="1"
         id="stop4076" />
    </linearGradient>
    <linearGradient
       id="linearGradient2315">
      <stop
         style="stop-color:#000000;stop-opacity:0;"
         offset="0"
         id="stop2317" />
      <stop
         style="stop-color:#000000;stop-opacity:0.57195574;"
         offset="1"
         id="stop2319" />
    </linearGradient>
    <filter
       inkscape:collect="always"
       id="filter3730"
       x="-0.34801543"
       width="1.6960309"
       y="-0.34084839"
       height="1.6816968">
      <feGaussianBlur
         inkscape:collect="always"
         stdDeviation="5.4650567"
         id="feGaussianBlur3732" />
    </filter>
    <filter
       inkscape:collect="always"
       id="filter4065"
       x="-0.51975077"
       width="2.0395014"
       y="-0.45338511"
       height="1.9067702">
      <feGaussianBlur
         inkscape:collect="always"
         stdDeviation="4.1511594"
         id="feGaussianBlur4067" />
    </filter>
    <filter
       inkscape:collect="always"
       id="filter4112"
       x="-0.070020586"
       width="1.1400412"
       y="-0.34009999"
       height="1.6802">
      <feGaussianBlur
         inkscape:collect="always"
         stdDeviation="3.9678331"
         id="feGaussianBlur4114" />
    </filter>
    <radialGradient
       inkscape:collect="always"
       xlink:href="#linearGradient4072"
       id="radialGradient3858"
       gradientUnits="userSpaceOnUse"
       gradientTransform="matrix(1.4028467,1.6438735e-6,-1.4520791e-7,0.2058824,-89.844917,403.11278)"
       cx="210.88904"
       cy="506.35242"
       fx="210.88904"
       fy="506.35242"
       r="68" />
    <radialGradient
       inkscape:collect="always"
       xlink:href="#linearGradient2315"
       id="radialGradient3860"
       gradientUnits="userSpaceOnUse"
       gradientTransform="matrix(0.7158046,1.4128374,-1.3538472,0.6859177,735.83621,-155.77224)"
       cx="216.99271"
       cy="497.9592"
       fx="216.99271"
       fy="497.9592"
       r="65" />
    <radialGradient
       inkscape:collect="always"
       xlink:href="#linearGradient2315"
       id="radialGradient3862"
       gradientUnits="userSpaceOnUse"
       gradientTransform="matrix(0.387095,1.5161279,-1.4234088,0.3634221,726.51481,-93.106615)"
       cx="233.49998"
       cy="409.86218"
       fx="233.49998"
       fy="409.86218"
       r="15.5" />
    <radialGradient
       inkscape:collect="always"
       xlink:href="#linearGradient2315"
       id="radialGradient3864"
       gradientUnits="userSpaceOnUse"
       gradientTransform="matrix(0.387095,1.5161279,-1.4234088,0.3634221,726.51481,-93.106615)"
       cx="233.49998"
       cy="409.86218"
       fx="233.49998"
       fy="409.86218"
       r="15.5" />
    <radialGradient
       inkscape:collect="always"
       xlink:href="#linearGradient2315"
       id="radialGradient3876"
       cx="265.01663"
       cy="395.88013"
       fx="265.01663"
       fy="395.88013"
       r="15.981292"
       gradientTransform="matrix(0.8109909,0.3212705,-1.2242803,3.09048,528.31609,-908.84447)"
       gradientUnits="userSpaceOnUse" />
    <radialGradient
       inkscape:collect="always"
       xlink:href="#linearGradient2315"
       id="radialGradient3928"
       cx="151.56471"
       cy="401.40567"
       fx="151.56471"
       fy="401.40567"
       r="17.986149"
       gradientTransform="matrix(1.0000004,-0.5165407,0.9895885,1.9158002,-396.83507,-288.38981)"
       gradientUnits="userSpaceOnUse" />
    <radialGradient
       inkscape:collect="always"
       xlink:href="#linearGradient2315"
       id="radialGradient3934"
       cx="217.88422"
       cy="470.88315"
       fx="217.88422"
       fy="470.88315"
       r="3.6592491"
       gradientTransform="matrix(1.6768537,-2.4181644e-2,7.0157993e-2,4.8650421,-180.51196,-1817.8659)"
       gradientUnits="userSpaceOnUse" />
    <radialGradient
       inkscape:collect="always"
       xlink:href="#linearGradient2315"
       id="radialGradient3936"
       cx="243.64627"
       cy="471.20126"
       fx="243.64627"
       fy="471.20126"
       r="3.3847916"
       gradientTransform="matrix(1.3106548,0.1778821,-0.5744859,4.2328756,195.00862,-1569.7694)"
       gradientUnits="userSpaceOnUse" />
  </defs>
  <sodipodi:namedview
     id="base"
     pagecolor="#ffffff"
     bordercolor="#666666"
     borderopacity="1.0"
     gridtolerance="10000"
     guidetolerance="10"
     objecttolerance="10"
     inkscape:pageopacity="0.0"
     inkscape:pageshadow="2"
     inkscape:zoom="0.721875"
     inkscape:cx="68.294372"
     inkscape:cy="-20.632199"
     inkscape:document-units="px"
     inkscape:current-layer="layer1"
     showgrid="false"
     inkscape:window-width="937"
     inkscape:window-height="717"
     inkscape:window-x="674"
     inkscape:window-y="205"
     showguides="true"
     inkscape:guide-bbox="true"
     height="640px"
     width="128px">
    <inkscape:grid
       type="xygrid"
       id="grid3194"
       originx="0px"
       originy="0px"
       spacingx="0px"
       spacingy="0px" />
  </sodipodi:namedview>
  <metadata
     id="metadata7">
    <rdf:RDF>
      <cc:Work
         rdf:about="">
        <dc:format>image/svg+xml</dc:format>
        <dc:type
           rdf:resource="http://purl.org/dc/dcmitype/StillImage" />
        <dc:title></dc:title>
        <dc:date></dc:date>
        <dc:creator>
          <cc:Agent>
            <dc:title></dc:title>
          </cc:Agent>
        </dc:creator>
        <dc:rights>
          <cc:Agent>
            <dc:title></dc:title>
          </cc:Agent>
        </dc:rights>
        <dc:publisher>
          <cc:Agent>
            <dc:title></dc:title>
          </cc:Agent>
        </dc:publisher>
        <dc:identifier></dc:identifier>
        <dc:source></dc:source>
        <dc:relation></dc:relation>
        <dc:language></dc:language>
        <dc:subject>
          <rdf:Bag />
        </dc:subject>
        <dc:coverage></dc:coverage>
        <dc:description></dc:description>
        <dc:contributor>
          <cc:Agent>
            <dc:title></dc:title>
          </cc:Agent>
        </dc:contributor>
        <cc:license
           rdf:resource="" />
      </cc:Work>
    </rdf:RDF>
  </metadata>
  <g
     inkscape:label="Layer 1"
     inkscape:groupmode="layer"
     id="layer1"
     transform="translate(-233.42021,-11.73452)">
    <g
       transform="matrix(0.7128664,0,0,0.7128664,-80.513368,-2.2985516)"
       id="g3830">
      <g
         id="g3902"
         transform="translate(321.17547,-325.73115)">
        <path
           id="path3832"
           d="M 274,507.36218 C 274,515.09018 243.536,521.36218 206,521.36218 C 168.464,521.36218 138,515.09018 138,507.36218 C 138,499.63418 168.464,493.36218 206,493.36218 C 243.536,493.36218 274,499.63418 274,507.36218 z"
           style="fill:url(#radialGradient3858);fill-opacity:1;stroke:none;stroke-width:4;stroke-linecap:round;stroke-miterlimit:4;stroke-opacity:1;filter:url(#filter4112)"
           transform="matrix(1.0588235,0,0,0.8571429,-9.117647,72.480312)" />
        <path
           style="fill:#aa4400;fill-rule:evenodd;stroke:none;stroke-width:1px;stroke-linecap:butt;stroke-linejoin:miter;stroke-opacity:1"
           d="M 263.19957,363.17143 C 272.10577,377.40457 285.3261,401.17007 259.21082,424.54833 C 252.99623,428.29416 242.26908,418.22189 242.60012,411.72309 C 266.47905,397.40298 265.37836,380.43132 263.19957,363.17143 z"
           id="path3868"
           sodipodi:nodetypes="cccc" />
        <path
           sodipodi:nodetypes="cccc"
           id="path3874"
           d="M 263.19957,363.17143 C 272.10577,377.40457 285.3261,401.17007 259.21082,424.54833 C 252.99623,428.29416 242.26908,418.22189 242.60012,411.72309 C 266.47905,397.40298 265.37836,380.43132 263.19957,363.17143 z"
           style="fill:url(#radialGradient3876);fill-rule:evenodd;stroke:none;stroke-width:1px;stroke-linecap:butt;stroke-linejoin:miter;stroke-opacity:1" />
        <path
           sodipodi:nodetypes="cccsssccssc"
           id="path3834"
           d="M 305,531.36218 C 305,536.20505 304.46949,568.92477 303.46346,573.46635 C 300.98926,585.92556 292.98013,593.09887 280.95284,595.82909 C 275.3627,596.87193 269.00413,574.00521 262.10328,573.87777 C 255.20242,573.75033 247.75928,596.36218 240,596.36218 C 232.20434,596.36218 224.7278,573.73753 217.7997,573.84256 C 210.87161,573.9476 204.49197,596.78232 198.89011,595.70106 C 186.20634,593.59612 179.57446,584.91986 176.44715,573.05649 C 175.49911,568.64103 175,536.05954 175,531.36218 C 175,495.48218 204.12,466.36218 240,466.36218 C 275.88,466.36218 305,495.48218 305,531.36218 z"
           style="fill:#ff0000;fill-opacity:1;stroke:none;stroke-width:4;stroke-linecap:round;stroke-miterlimit:4;stroke-opacity:1"
           transform="translate(-31,-85)" />
        <path
           transform="translate(-31,-85)"
           style="fill:url(#radialGradient3860);fill-opacity:1;stroke:none;stroke-width:4;stroke-linecap:round;stroke-miterlimit:4;stroke-opacity:1"
           d="M 305,531.36218 C 305,536.20505 304.46949,568.92477 303.46346,573.46635 C 300.98926,585.92556 292.98013,593.09887 280.95284,595.82909 C 275.3627,596.87193 269.00413,574.00521 262.10328,573.87777 C 255.20242,573.75033 247.75928,596.36218 240,596.36218 C 232.20434,596.36218 224.7278,573.73753 217.7997,573.84256 C 210.87161,573.9476 204.49197,596.78232 198.89011,595.70106 C 186.20634,593.59612 179.57446,584.91986 176.44715,573.05649 C 175.49911,568.64103 175,536.05954 175,531.36218 C 175,495.48218 204.12,466.36218 240,466.36218 C 275.88,466.36218 305,495.48218 305,531.36218 z"
           id="path3836"
           sodipodi:nodetypes="cccsssccssc" />
        <g
           transform="translate(5,10)"
           id="g3838">
          <path
             sodipodi:type="arc"
             style="opacity:1;fill:#ffffff;fill-opacity:1;stroke:none;stroke-width:4;stroke-linecap:round;stroke-miterlimit:4;stroke-dasharray:none;stroke-opacity:1"
             id="path3840"
             sodipodi:cx="239.5"
             sodipodi:cy="417.86218"
             sodipodi:rx="15.5"
             sodipodi:ry="15.5"
             d="M 255,417.86218 A 15.5,15.5 0 1 1 224,417.86218 A 15.5,15.5 0 1 1 255,417.86218 z"
             transform="translate(4,7)" />
          <path
             transform="translate(4,7)"
             d="M 255,417.86218 A 15.5,15.5 0 1 1 224,417.86218 A 15.5,15.5 0 1 1 255,417.86218 z"
             sodipodi:ry="15.5"
             sodipodi:rx="15.5"
             sodipodi:cy="417.86218"
             sodipodi:cx="239.5"
             id="path3842"
             style="opacity:1;fill:url(#radialGradient3862);fill-opacity:1;stroke:none;stroke-width:4;stroke-linecap:round;stroke-miterlimit:4;stroke-dasharray:none;stroke-opacity:1"
             sodipodi:type="arc" />
          <path
             sodipodi:type="arc"
             style="opacity:1;fill:#000000;fill-opacity:1;stroke:none;stroke-width:4;stroke-linecap:round;stroke-miterlimit:4;stroke-dasharray:none;stroke-opacity:1"
             id="path3844"
             sodipodi:cx="239.5"
             sodipodi:cy="417.86218"
             sodipodi:rx="15.5"
             sodipodi:ry="15.5"
             d="M 255,417.86218 A 15.5,15.5 0 1 1 224,417.86218 A 15.5,15.5 0 1 1 255,417.86218 z"
             transform="matrix(0.6129032,0,0,0.6129032,101.70968,169.7531)" />
        </g>
        <g
           transform="translate(-35,10)"
           id="g3846">
          <path
             transform="translate(4,7)"
             d="M 255,417.86218 A 15.5,15.5 0 1 1 224,417.86218 A 15.5,15.5 0 1 1 255,417.86218 z"
             sodipodi:ry="15.5"
             sodipodi:rx="15.5"
             sodipodi:cy="417.86218"
             sodipodi:cx="239.5"
             id="path3848"
             style="opacity:1;fill:#ffffff;fill-opacity:1;stroke:none;stroke-width:4;stroke-linecap:round;stroke-miterlimit:4;stroke-dasharray:none;stroke-opacity:1"
             sodipodi:type="arc" />
          <path
             sodipodi:type="arc"
             style="opacity:1;fill:url(#radialGradient3864);fill-opacity:1;stroke:none;stroke-width:4;stroke-linecap:round;stroke-miterlimit:4;stroke-dasharray:none;stroke-opacity:1"
             id="path3850"
             sodipodi:cx="239.5"
             sodipodi:cy="417.86218"
             sodipodi:rx="15.5"
             sodipodi:ry="15.5"
             d="M 255,417.86218 A 15.5,15.5 0 1 1 224,417.86218 A 15.5,15.5 0 1 1 255,417.86218 z"
             transform="translate(4,7)" />
          <path
             transform="matrix(0.6129032,0,0,0.6129032,101.70968,169.7531)"
             d="M 255,417.86218 A 15.5,15.5 0 1 1 224,417.86218 A 15.5,15.5 0 1 1 255,417.86218 z"
             sodipodi:ry="15.5"
             sodipodi:rx="15.5"
             sodipodi:cy="417.86218"
             sodipodi:cx="239.5"
             id="path3852"
             style="opacity:1;fill:#000000;fill-opacity:1;stroke:none;stroke-width:4;stroke-linecap:round;stroke-miterlimit:4;stroke-dasharray:none;stroke-opacity:1"
             sodipodi:type="arc" />
        </g>
        <path
           id="path3854"
           d="M 180.00895,413.25201 C 169.98339,423.52178 159.6027,429.66602 156.83776,426.96684 C 154.07283,424.26764 159.9655,413.74212 169.99105,403.47235 C 180.01661,393.20258 190.3973,387.05834 193.16224,389.75752 C 195.92717,392.45672 190.0345,402.98224 180.00895,413.25201 z"
           style="fill:#ffffff;fill-opacity:0.62745098;stroke:none;stroke-width:4;stroke-linecap:round;stroke-miterlimit:4;stroke-opacity:1;filter:url(#filter3730)" />
        <path
           id="path3856"
           d="M 262,501.86218 C 262,509.31418 259.536,515.36218 256.5,515.36218 C 253.464,515.36218 251,509.31418 251,501.86218 C 251,494.41018 253.464,488.36218 256.5,488.36218 C 259.536,488.36218 262,494.41018 262,501.86218 z"
           style="fill:#ffffff;fill-opacity:0.43438912;stroke:none;stroke-width:4;stroke-linecap:round;stroke-miterlimit:4;stroke-opacity:1;filter:url(#filter4065)"
           transform="matrix(0.7712592,0.6365212,-0.6365212,0.7712592,379.11791,-54.471338)" />
        <path
           sodipodi:nodetypes="cccc"
           id="path3866"
           d="M 142.30433,369.61548 C 136.61455,385.41197 128.72734,411.43827 159.20143,428.75533 C 166.06836,431.10002 174.419,418.98436 172.71911,412.70309 C 146.34904,403.76507 143.83038,386.94529 142.30433,369.61548 z"
           style="fill:#aa4400;fill-rule:evenodd;stroke:none;stroke-width:1px;stroke-linecap:butt;stroke-linejoin:miter;stroke-opacity:1" />
        <path
           sodipodi:nodetypes="ccccc"
           id="path3896"
           d="M 244.80181,463.2987 C 237.8122,458.87131 230.8114,461.20721 221.02933,463.28919 L 217.75693,464.5124 C 228.13193,464.17606 234.10421,461.53584 244.47921,464.15287 L 244.80181,463.2987 z"
           style="fill:#000000;fill-opacity:1;fill-rule:evenodd;stroke:none;stroke-width:1px;stroke-linecap:butt;stroke-linejoin:miter;stroke-opacity:1" />
        <path
           sodipodi:nodetypes="cccc"
           id="path3878"
           d="M 216.69983,464.1279 C 217.23476,471.45617 220.2437,476.70011 222.76353,482.35611 C 223.32053,476.44788 224.99052,471.42739 223.23936,463.67815 C 219.28033,462.91109 218.38387,463.72245 216.69983,464.1279 z"
           style="fill:#ffffff;fill-rule:evenodd;stroke:none;stroke-width:1px;stroke-linecap:butt;stroke-linejoin:miter;stroke-opacity:1" />
        <path
           style="fill:#ffffff;fill-rule:evenodd;stroke:none;stroke-width:1px;stroke-linecap:butt;stroke-linejoin:miter;stroke-opacity:1"
           d="M 242.4783,463.41864 C 241.50071,470.70108 243.37162,476.45019 244.67941,482.50243 C 246.43488,476.8336 249.0979,472.26166 248.97128,464.31803 C 245.25334,462.75624 244.20969,463.36676 242.4783,463.41864 z"
           id="path3886"
           sodipodi:nodetypes="cccc" />
        <path
           style="fill:url(#radialGradient3928);fill-rule:evenodd;stroke:none;stroke-width:1px;stroke-linecap:butt;stroke-linejoin:miter;stroke-opacity:1"
           d="M 142.30433,369.61548 C 136.61455,385.41197 128.72734,411.43827 159.20143,428.75533 C 166.06836,431.10002 174.419,418.98436 172.71911,412.70309 C 146.34904,403.76507 143.83038,386.94529 142.30433,369.61548 z"
           id="path3926"
           sodipodi:nodetypes="cccc" />
        <path
           style="fill:url(#radialGradient3934);fill-rule:evenodd;stroke:none;stroke-width:1px;stroke-linecap:butt;stroke-linejoin:miter;stroke-opacity:1"
           d="M 216.69983,464.1279 C 217.23476,471.45617 220.2437,476.70011 222.76353,482.35611 C 223.32053,476.44788 224.99052,471.42739 223.23936,463.67815 C 219.28033,462.91109 218.38387,463.72245 216.69983,464.1279 z"
           id="path3930"
           sodipodi:nodetypes="cccc" />
        <path
           sodipodi:nodetypes="cccc"
           id="path3932"
           d="M 242.4783,463.41864 C 241.50071,470.70108 243.37162,476.45019 244.67941,482.50243 C 246.43488,476.8336 249.0979,472.26166 248.97128,464.31803 C 245.25334,462.75624 244.20969,463.36676 242.4783,463.41864 z"
           style="fill:url(#radialGradient3936);fill-rule:evenodd;stroke:none;stroke-width:1px;stroke-linecap:butt;stroke-linejoin:miter;stroke-opacity:1" />
      </g>
    </g>
  </g>
</svg>
